<svg width="15" height="8" viewBox="0 0 15 8" fill="none" xmlns="http://www.w3.org/2000/svg">
<path d="M13.5007 0.171316L7.25321 6.26132L1.00571 0.171316C0.894086 0.0622883 0.744242 0.00124991 0.588208 0.00124991C0.432174 0.00124991 0.28233 0.0622883 0.170708 0.171316C0.116661 0.224272 0.0737233 0.287479 0.0444108 0.357236C0.0150983 0.426994 0 0.5019 0 0.577566C0 0.653232 0.0150983 0.728137 0.0444108 0.797895C0.0737233 0.867653 0.116661 0.930861 0.170708 0.983816L6.81696 7.46382C6.93368 7.57758 7.09022 7.64126 7.25321 7.64126C7.4162 7.64126 7.57274 7.57758 7.68946 7.46382L14.3357 0.985066C14.3901 0.932071 14.4334 0.868709 14.4629 0.79872C14.4925 0.72873 14.5077 0.653533 14.5077 0.577566C14.5077 0.501599 14.4925 0.426401 14.4629 0.356412C14.4334 0.286423 14.3901 0.223061 14.3357 0.170066C14.2241 0.0610378 14.0742 0 13.9182 0C13.7622 0 13.6123 0.0610378 13.5007 0.170066V0.171316Z" fill="#FDFDFD"/>
</svg>
