<svg width="8" height="15" viewBox="0 0 8 15" fill="none" xmlns="http://www.w3.org/2000/svg">
<path d="M0.171316 1.00698L6.26132 7.25448L0.171316 13.502C0.0622883 13.6136 0.00124991 13.7634 0.00124991 13.9195C0.00124991 14.0755 0.0622883 14.2254 0.171316 14.337C0.224272 14.391 0.287479 14.434 0.357236 14.4633C0.426994 14.4926 0.5019 14.5077 0.577566 14.5077C0.653232 14.5077 0.728137 14.4926 0.797895 14.4633C0.867653 14.434 0.930861 14.391 0.983816 14.337L7.46382 7.69073C7.57758 7.57402 7.64126 7.41747 7.64126 7.25448C7.64126 7.09149 7.57758 6.93495 7.46382 6.81823L0.985066 0.171982C0.932071 0.117553 0.868709 0.0742912 0.79872 0.0447521C0.72873 0.015213 0.653533 -4.76837e-06 0.577566 -4.76837e-06C0.501599 -4.76837e-06 0.426401 0.015213 0.356412 0.0447521C0.286423 0.0742912 0.223061 0.117553 0.170066 0.171982C0.0610378 0.283604 0 0.433449 0 0.589482C0 0.745517 0.0610378 0.89536 0.170066 1.00698H0.171316Z" fill="#FDFDFD"/>
</svg>
