<svg width="138" height="29" viewBox="0 0 138 29" fill="none" xmlns="http://www.w3.org/2000/svg">
<path d="M0.154619 17.8942C0.400803 17.8362 24.9963 12.0149 43.5151 3.86077C45.5752 2.95377 47.2431 2.41607 48.6481 2.16267C47.074 3.73727 37.814 7.66267 45.2096 8.35827C51.9954 8.99717 40.8172 16.9908 35.6929 19.897C22.2142 24.1397 13.4663 25.8059 13.309 25.8355L13.4945 26.8171C13.5404 26.8084 14.3239 26.6593 15.7417 26.3479C23.1718 24.7154 48.1134 18.6021 76.7281 4.63167C80.7409 2.67247 84.016 1.58597 86.7724 1.18277C85.9643 5.29857 76.6083 14.4 91.5501 16.6982C105.178 18.7942 77.8487 24.1161 67.6632 26.8258C66.1942 27.2167 65.0813 27.5533 64.5001 27.8177C60.0031 29.8654 112.281 28.0235 135.659 27.9302C136.422 27.9569 137.2 27.9722 138 27.9722V26.9733C117.119 26.9733 109.723 17.4936 103.78 9.87657C97.6048 1.96087 92.727 -4.29228 76.2844 3.73527C72.4637 5.59947 68.6012 7.37817 64.7 9.07017C61.2525 7.85217 59.1645 6.10037 57.3353 4.56267C53.9293 1.69947 51.4682 -0.369561 43.2438 3.25247C24.7824 11.3806 0.245513 17.1886 0 17.2462L0.154619 17.8942Z" fill="#FDFDFD"/>
</svg>
