<svg width="27" height="27" viewBox="0 0 27 27" fill="none" xmlns="http://www.w3.org/2000/svg">
<path d="M9.38667 26.0533C10.6667 26.44 11.96 26.6667 13.3333 26.6667C16.8696 26.6667 20.2609 25.2619 22.7614 22.7614C25.2619 20.2609 26.6667 16.8696 26.6667 13.3333C26.6667 11.5824 26.3218 9.84856 25.6517 8.23089C24.9817 6.61321 23.9995 5.14336 22.7614 3.90524C21.5233 2.66713 20.0535 1.685 18.4358 1.01494C16.8181 0.344877 15.0843 0 13.3333 0C11.5824 0 9.84856 0.344877 8.23089 1.01494C6.61321 1.685 5.14336 2.66713 3.90524 3.90524C1.40476 6.40573 0 9.79712 0 13.3333C0 19 3.56 23.8667 8.58667 25.7867C8.46667 24.7467 8.34667 23.0267 8.58667 21.84L10.12 15.2533C10.12 15.2533 9.73334 14.48 9.73334 13.2533C9.73334 11.4133 10.88 10.04 12.1867 10.04C13.3333 10.04 13.8667 10.88 13.8667 11.96C13.8667 13.1067 13.1067 14.7467 12.72 16.32C12.4933 17.6267 13.4133 18.7733 14.7467 18.7733C17.12 18.7733 18.96 16.24 18.96 12.6667C18.96 9.46667 16.6667 7.28 13.3733 7.28C9.61333 7.28 7.4 10.08 7.4 13.0267C7.4 14.1733 7.77333 15.3333 8.38667 16.0933C8.50667 16.1733 8.50667 16.28 8.46667 16.48L8.08 17.9333C8.08 18.16 7.93334 18.24 7.70667 18.08C6 17.3333 5.01333 14.9067 5.01333 12.9467C5.01333 8.73334 8 4.90667 13.76 4.90667C18.3467 4.90667 21.92 8.2 21.92 12.5733C21.92 17.16 19.08 20.84 15.0133 20.84C13.72 20.84 12.4533 20.1467 12 19.3333L11.1067 22.4933C10.8 23.64 9.96 25.1733 9.38667 26.0933V26.0533Z" fill="white"/>
</svg>
