<svg width="27" height="27" viewBox="0 0 27 27" fill="none" xmlns="http://www.w3.org/2000/svg">
<path d="M13.3333 0C5.97333 0 0 5.97333 0 13.3333C0 20.6933 5.97333 26.6667 13.3333 26.6667C20.6933 26.6667 26.6667 20.6933 26.6667 13.3333C26.6667 5.97333 20.6933 0 13.3333 0ZM19.52 9.06667C19.32 11.1733 18.4533 16.2933 18.0133 18.6533C17.8267 19.6533 17.4533 19.9867 17.1067 20.0267C16.3333 20.0933 15.7467 19.52 15 19.0267C13.8267 18.2533 13.16 17.7733 12.0267 17.0267C10.7067 16.16 11.56 15.68 12.32 14.9067C12.52 14.7067 15.9333 11.6 16 11.32C16.0093 11.2776 16.008 11.2336 15.9964 11.1917C15.9848 11.1499 15.9631 11.1116 15.9333 11.08C15.8533 11.0133 15.7467 11.04 15.6533 11.0533C15.5333 11.08 13.6667 12.32 10.0267 14.7733C9.49334 15.1333 9.01333 15.32 8.58667 15.3067C8.10667 15.2933 7.2 15.04 6.52 14.8133C5.68 14.5467 5.02667 14.4 5.08 13.9333C5.10667 13.6933 5.44 13.4533 6.06667 13.2C9.96 11.5067 12.5467 10.3867 13.84 9.85334C17.5467 8.30667 18.3067 8.04 18.8133 8.04C18.92 8.04 19.1733 8.06667 19.3333 8.2C19.4667 8.30667 19.5067 8.45333 19.52 8.56C19.5067 8.64 19.5333 8.88 19.52 9.06667Z" fill="white"/>
</svg>
