<svg width="27" height="27" viewBox="0 0 27 27" fill="none" xmlns="http://www.w3.org/2000/svg">
<path d="M13.36 0C5.98138 0 0 5.98138 0 13.36C0 20.7386 5.98138 26.72 13.36 26.72C20.7386 26.72 26.72 20.7386 26.72 13.36C26.72 5.98138 20.7386 0 13.36 0ZM18.498 15.0731C18.498 15.0731 19.6796 16.2394 19.9704 16.7807C19.9788 16.7918 19.9829 16.803 19.9857 16.8085C20.104 17.0076 20.1318 17.162 20.0734 17.2775C19.976 17.4696 19.642 17.5642 19.5279 17.5726H17.4404C17.2956 17.5726 16.9922 17.535 16.6248 17.2817C16.3423 17.0841 16.064 16.7598 15.7926 16.4439C15.3877 15.9735 15.037 15.5672 14.6835 15.5672C14.6386 15.5671 14.594 15.5742 14.5513 15.5881C14.2841 15.6743 13.9417 16.0557 13.9417 17.0716C13.9417 17.3889 13.6912 17.5712 13.5145 17.5712H12.5584C12.2327 17.5712 10.5363 17.4571 9.03331 15.872C7.19352 13.9306 5.53744 10.0367 5.52352 10.0005C5.41915 9.74862 5.63486 9.61363 5.87005 9.61363H7.97842C8.25954 9.61363 8.35139 9.78481 8.41541 9.9365C8.49056 10.1132 8.76611 10.816 9.2184 11.6065C9.95181 12.8952 10.4013 13.4184 10.7618 13.4184C10.8293 13.4177 10.8957 13.4005 10.9552 13.3683C11.4256 13.1067 11.3379 11.4298 11.317 11.0818C11.317 11.0164 11.3156 10.3317 11.0749 10.0033C10.9023 9.76532 10.6087 9.67487 10.4305 9.64147C10.5026 9.54198 10.5976 9.46131 10.7075 9.40627C11.0303 9.24484 11.6121 9.22118 12.1896 9.22118H12.5111C13.1373 9.22953 13.2988 9.26989 13.5256 9.32695C13.9849 9.43689 13.9946 9.73332 13.9542 10.7478C13.9417 11.0359 13.9292 11.3616 13.9292 11.7457C13.9292 11.8292 13.925 11.9182 13.925 12.0129C13.9111 12.5292 13.8944 13.1151 14.259 13.3558C14.3066 13.3856 14.3615 13.4016 14.4177 13.4017C14.5443 13.4017 14.9256 13.4017 15.9582 11.6302C16.2767 11.0599 16.5534 10.4674 16.7863 9.85717C16.8072 9.82099 16.8684 9.70966 16.9408 9.66652C16.9942 9.63929 17.0534 9.62544 17.1133 9.62616H19.5919C19.8619 9.62616 20.047 9.66652 20.0817 9.77089C20.143 9.9365 20.0706 10.4417 18.9392 11.9739L18.434 12.6405C17.4084 13.9849 17.4084 14.053 18.498 15.0731Z" fill="white"/>
</svg>
